<?xml version="1.0" standalone="no"?>
<!DOCTYPE svg PUBLIC "-//W3C//DTD SVG 20010904//EN"
 "http://www.w3.org/TR/2001/REC-SVG-20010904/DTD/svg10.dtd">
<svg version="1.0" xmlns="http://www.w3.org/2000/svg"
 width="402.000000pt" height="402.000000pt" viewBox="0 0 402.000000 402.000000"
 preserveAspectRatio="xMidYMid meet">
<g transform="translate(0.000000,402.000000) scale(0.100000,-0.100000)"
fill="#000000" stroke="none">
<path d="M845 3965 c-12 -27 -37 -86 -55 -130 -18 -44 -38 -93 -45 -110 -14
-32 -116 -278 -215 -520 -34 -82 -68 -163 -75 -180 -8 -16 -35 -82 -60 -145
-26 -63 -53 -128 -60 -145 -51 -113 -115 -281 -111 -290 2 -7 75 -108 161
-226 86 -118 163 -223 171 -234 8 -11 59 -81 113 -155 55 -74 203 -277 330
-450 126 -173 233 -319 238 -325 5 -5 24 -32 43 -60 19 -27 40 -56 47 -65 27
-34 653 -891 665 -910 7 -11 16 -20 19 -20 4 0 71 89 150 198 79 108 146 199
149 202 3 3 13 16 22 30 9 14 85 117 167 230 162 220 453 618 616 841 55 75
159 217 230 314 225 306 382 521 432 592 29 42 30 47 18 76 -116 278 -365 881
-481 1162 -81 198 -150 362 -152 365 -2 3 -519 5 -1149 5 l-1146 0 -22 -50z
m2098 -292 c5 -8 31 -69 58 -136 28 -67 56 -135 63 -152 14 -30 337 -815 357
-867 10 -24 1 -39 -123 -208 -73 -100 -149 -203 -168 -230 -19 -27 -111 -153
-205 -280 -93 -127 -179 -244 -190 -260 -33 -48 -556 -760 -558 -760 -1 0 -1
307 -1 682 l2 682 50 22 c235 104 367 347 327 603 -34 221 -234 418 -455 449
-182 25 -354 -31 -475 -156 -105 -106 -154 -224 -160 -376 -7 -211 114 -412
303 -503 l80 -38 0 -678 c0 -372 -3 -675 -8 -672 -4 3 -152 202 -328 442 -176
241 -424 580 -550 753 -127 173 -234 320 -239 325 -8 11 -35 47 -95 130 -34
48 -36 53 -23 80 7 17 45 107 83 200 248 602 385 932 392 945 7 13 120 15 932
15 750 1 925 -2 931 -12z m-848 -795 c17 -6 45 -25 63 -42 142 -131 67 -361
-123 -380 -134 -14 -247 91 -241 224 8 156 156 254 301 198z"/>
</g>
</svg>
